<?xml version="1.0" standalone="no"?>
<!DOCTYPE svg PUBLIC "-//W3C//DTD SVG 20010904//EN"
 "http://www.w3.org/TR/2001/REC-SVG-20010904/DTD/svg10.dtd">
<svg version="1.0" xmlns="http://www.w3.org/2000/svg"
 width="640.000000pt" height="640.000000pt" viewBox="0 0 640.000000 640.000000"
 preserveAspectRatio="xMidYMid meet">
<metadata>
Created by potrace 1.14, written by Peter Selinger 2001-2017
</metadata>
<g transform="translate(0.000000,640.000000) scale(0.100000,-0.100000)"
fill="#000000" stroke="none">
<path d="M0 3200 l0 -3200 3200 0 3200 0 0 3200 0 3200 -3200 0 -3200 0 0
-3200z m3570 2900 c0 -5 -4 -10 -10 -10 -5 0 -10 5 -10 10 0 6 5 10 10 10 6 0
10 -4 10 -10z m430 -204 c0 -8 -4 -18 -10 -21 -5 -3 -10 3 -10 14 0 12 5 21
10 21 6 0 10 -6 10 -14z m97 -42 c-3 -3 -12 -4 -19 -1 -8 3 -5 6 6 6 11 1 17
-2 13 -5z m133 -94 c0 -5 -4 -10 -10 -10 -5 0 -10 5 -10 10 0 6 5 10 10 10 6
0 10 -4 10 -10z m85 -41 c12 -19 -5 -23 -22 -6 -16 16 -16 17 -1 17 9 0 20 -5
23 -11z m70 -79 c3 -5 1 -10 -4 -10 -6 0 -11 5 -11 10 0 6 2 10 4 10 3 0 8 -4
11 -10z m-589 -261 c32 -18 66 -38 75 -46 16 -13 89 -31 154 -37 17 -2 51 -15
77 -29 26 -15 53 -27 60 -28 7 0 36 -11 63 -24 45 -21 52 -22 72 -9 12 8 29
14 38 14 8 0 15 5 15 12 0 6 3 8 8 4 4 -4 7 -128 7 -276 l0 -267 -40 5 c-22 2
-47 11 -55 18 -9 7 -36 16 -60 20 -25 4 -51 12 -59 17 -18 15 -231 87 -257 87
-12 0 -24 -6 -27 -14 -3 -8 -28 -16 -59 -20 -96 -11 -132 -16 -184 -27 -37 -8
-65 -8 -108 1 -51 10 -60 10 -76 -5 -22 -20 -55 -13 -70 14 -6 11 -31 23 -68
31 -83 17 -88 21 -73 59 18 43 91 99 159 122 31 11 69 26 84 34 30 17 52 20
43 5 -3 -5 -15 -10 -26 -10 -24 0 -24 -17 -1 -51 20 -31 64 -33 85 -5 12 17
20 17 101 7 47 -7 91 -9 96 -6 36 22 139 20 245 -4 44 -10 101 -16 126 -14 31
3 57 -1 77 -11 17 -9 44 -16 60 -16 15 0 34 -6 40 -12 20 -20 32 8 32 77 l0
61 -56 1 c-31 1 -61 6 -67 12 -6 6 -21 11 -34 11 -12 0 -37 9 -55 20 -18 11
-42 20 -54 20 -11 0 -29 7 -40 15 -10 8 -33 15 -51 15 -17 0 -34 4 -37 9 -9
15 -157 5 -198 -13 -44 -19 -47 -29 -15 -44 12 -6 17 -11 10 -11 -7 -1 -10 -8
-7 -16 7 -18 -9 -19 -38 -4 -15 8 -26 8 -44 -1 -19 -11 -26 -11 -39 0 -8 7
-27 10 -43 7 -21 -4 -31 -1 -41 15 -11 18 -11 23 3 33 19 14 21 36 5 52 -6 6
-13 30 -14 53 -2 22 -8 46 -13 53 -12 14 0 90 17 111 31 37 173 29 257 -15z
m-1078 -445 c19 -13 52 -63 52 -78 0 -9 -49 13 -79 35 -25 18 -37 20 -77 14
-92 -13 -150 -107 -124 -199 l12 -46 19 24 c11 13 19 27 19 31 0 13 60 93 74
98 18 7 90 -58 81 -73 -3 -5 -17 -10 -30 -10 -40 0 -72 -45 -80 -112 -5 -37
-3 -64 3 -70 13 -13 32 -2 32 18 0 29 39 14 56 -21 9 -19 17 -35 19 -35 1 0
16 5 34 11 28 10 31 15 31 50 0 46 24 89 51 89 10 0 24 8 31 18 17 24 56 34
80 21 17 -9 18 -18 12 -94 -7 -86 7 -172 30 -187 8 -5 7 -11 -2 -20 -6 -6 -12
-19 -12 -27 1 -9 10 0 20 20 11 20 26 39 35 42 8 4 15 15 15 26 0 13 8 21 23
23 15 2 29 18 47 55 14 28 37 64 53 79 15 14 27 37 27 50 0 32 10 55 22 48 5
-3 20 4 33 16 22 20 24 21 42 5 10 -9 28 -24 41 -33 12 -9 25 -28 27 -42 14
-77 21 -88 86 -152 71 -70 88 -108 48 -108 -11 0 -32 -9 -46 -20 -14 -11 -31
-20 -38 -20 -7 0 -18 -7 -25 -15 -7 -9 -20 -15 -29 -14 -31 3 -39 -1 -44 -23
-5 -19 -14 -24 -47 -26 -33 -2 -40 1 -40 15 0 13 -2 15 -8 5 -10 -15 -38 -7
-46 14 -6 16 -15 17 -36 4 -13 -9 -13 -11 0 -19 8 -6 12 -13 8 -16 -10 -11
-48 19 -48 37 0 10 5 18 10 18 14 0 12 32 -5 53 -13 18 -14 17 -28 -10 -7 -15
-12 -36 -10 -45 3 -11 -1 -18 -11 -18 -10 0 -16 9 -16 25 0 14 -4 25 -8 25
-15 0 -32 -24 -32 -47 0 -17 6 -23 23 -23 15 0 27 -11 40 -37 18 -35 18 -36
-3 -58 -11 -12 -17 -24 -14 -27 10 -11 -7 -48 -22 -48 -8 0 -14 -5 -14 -11 0
-6 7 -9 15 -5 10 4 15 -1 15 -14 0 -16 -7 -20 -35 -20 -27 0 -35 -4 -35 -17 0
-37 -15 -44 -40 -21 -16 15 -25 18 -28 10 -5 -17 -22 -15 -22 4 0 14 -2 14
-15 0 -8 -8 -15 -21 -15 -28 0 -17 -46 -136 -59 -152 -5 -6 -12 -26 -16 -43
-4 -19 -13 -33 -21 -33 -10 0 -13 -7 -8 -25 4 -15 2 -25 -4 -25 -22 0 -62 24
-62 37 0 7 -4 13 -10 13 -5 0 -10 6 -10 13 0 7 -9 30 -21 51 -11 21 -19 50
-17 65 2 20 -7 38 -35 66 -25 25 -37 47 -37 66 0 38 20 129 35 159 7 14 15 48
19 77 6 48 4 54 -23 85 -50 57 -76 142 -91 296 -6 65 -6 111 1 135 12 43 51
92 94 118 38 24 131 26 163 3z m76 -170 c3 -9 2 -23 -3 -32 -9 -16 -10 -16
-16 1 -4 9 -15 17 -24 17 -14 1 -13 3 3 15 25 19 32 19 40 -1z m1553 -150 c-3
-3 -12 -4 -19 -1 -8 3 -5 6 6 6 11 1 17 -2 13 -5z m-197 -140 c6 -14 10 -36
10 -48 0 -13 7 -29 15 -36 8 -7 15 -28 15 -47 0 -31 2 -34 16 -22 13 11 14 9
7 -17 -4 -16 -8 -66 -8 -111 0 -46 -3 -83 -7 -83 -5 0 -8 6 -8 14 0 11 -19 14
-87 14 -49 0 -101 6 -118 12 -16 7 -48 12 -70 11 -67 -1 -73 10 -50 87 6 16 3
22 -9 22 -9 0 -16 5 -16 10 0 15 -36 12 -49 -3 -6 -8 -29 -20 -51 -27 -22 -7
-45 -19 -51 -27 -16 -19 -39 2 -31 29 3 13 -1 24 -12 30 -17 9 -16 11 2 28 11
11 30 17 44 15 103 -15 107 -15 125 3 28 27 74 45 87 32 5 -5 20 -10 33 -10
27 0 29 -12 7 -45 -30 -46 1 -26 40 25 21 28 46 56 56 63 9 7 25 28 35 47 34
68 58 79 75 34z m-200 -53 c0 -5 -7 -12 -16 -15 -14 -5 -15 -4 -4 9 14 17 20
19 20 6z m70 -15 c0 -2 -7 -9 -15 -16 -13 -11 -14 -10 -9 4 5 14 24 23 24 12z
m422 -123 c-6 -10 -20 -27 -33 -38 -19 -17 -18 -14 6 23 27 41 47 53 27 15z
m-155 -59 c-3 -3 -12 -4 -19 -1 -8 3 -5 6 6 6 11 1 17 -2 13 -5z m-2087 -38
c0 -3 -4 -8 -10 -11 -5 -3 -10 -1 -10 4 0 6 5 11 10 11 6 0 10 -2 10 -4z
m1430 -35 c-1 -9 -8 -27 -16 -41 -14 -24 -15 -24 -11 -2 3 14 0 22 -8 22 -23
0 -29 22 -11 36 22 15 46 8 46 -15z m-117 -66 c-1 -6 18 -10 43 -9 35 1 44 -2
44 -15 0 -27 21 -41 62 -41 21 0 38 -4 38 -10 0 -5 -5 -10 -11 -10 -6 0 -28
-18 -50 -40 -22 -22 -48 -40 -59 -40 -10 0 -20 -5 -22 -11 -2 -6 -22 -11 -43
-11 -97 2 -89 0 -79 26 3 9 12 16 20 16 8 0 14 5 14 11 0 5 -5 7 -10 4 -15 -9
-47 3 -54 21 -3 9 1 25 9 37 8 12 15 34 15 48 0 18 6 29 18 32 28 8 67 3 65
-8z m591 -73 c-1 -6 -2 -31 -4 -54 l-2 -43 -10 35 c-22 82 -22 82 -2 78 11 -2
19 -9 18 -16z m-2145 -83 c11 -19 11 -21 -4 -15 -9 3 -29 9 -43 13 -24 6 -25
7 -7 14 32 12 39 10 54 -12z m-502 -235 c-3 -3 -12 -4 -19 -1 -8 3 -5 6 6 6
11 1 17 -2 13 -5z m-84 -11 c-7 -2 -19 -2 -25 0 -7 3 -2 5 12 5 14 0 19 -2 13
-5z m2432 -73 c0 -23 -123 -36 -144 -16 -13 14 -12 16 10 25 38 16 134 9 134
-9z m-2535 -60 c0 -5 -2 -10 -4 -10 -3 0 -8 5 -11 10 -3 6 -1 10 4 10 6 0 11
-4 11 -10z m-12 -107 c-10 -2 -26 -2 -35 0 -10 3 -2 5 17 5 19 0 27 -2 18 -5z
m1357 -828 c33 -30 64 -55 69 -55 5 0 17 -6 25 -14 9 -7 40 -21 70 -31 38 -12
69 -32 101 -64 62 -63 140 -170 174 -239 16 -31 44 -83 63 -114 19 -32 56 -99
83 -150 46 -87 49 -90 55 -63 4 17 27 103 51 193 24 89 44 164 44 167 0 3 9 5
20 5 21 0 40 -27 40 -59 0 -12 6 -21 14 -21 8 0 24 -19 35 -43 32 -67 29 -214
-8 -383 -16 -71 -36 -147 -45 -168 -9 -21 -16 -65 -16 -97 0 -34 -4 -59 -10
-59 -6 0 -15 -11 -19 -24 -10 -24 -56 -36 -141 -36 l-37 0 -7 53 c-3 28 -6 66
-6 82 0 17 -27 86 -64 160 -70 141 -124 254 -221 466 -61 135 -113 224 -167
287 -23 27 -144 203 -172 250 -16 27 13 9 69 -43z m1631 -634 c0 -19 5 -36 12
-39 25 -8 11 -30 -23 -36 -20 -4 -51 -16 -70 -27 -42 -25 -58 -18 -45 17 15
39 12 47 -15 40 -32 -8 -32 -1 0 20 21 14 28 14 41 3 9 -7 13 -21 10 -34 -9
-36 38 -21 52 17 14 38 7 51 -19 38 -14 -8 -19 -7 -19 3 0 22 23 38 50 35 21
-3 25 -8 26 -37z m-165 -92 c25 -48 -40 -101 -80 -65 -23 21 -31 20 -31 -4 0
-12 7 -20 18 -20 14 -1 13 -4 -7 -20 -13 -11 -32 -20 -43 -20 -21 0 -22 19 -3
63 6 14 2 17 -20 17 -29 0 -30 16 -2 34 12 8 22 7 37 -2 25 -15 30 -15 30 1 0
40 81 53 101 16z m2307 -717 c2 -13 -3 -31 -11 -40 -8 -9 -22 -35 -31 -57 -10
-22 -34 -55 -55 -75 -20 -19 -45 -46 -54 -60 -9 -14 -25 -36 -34 -50 -16 -22
-17 -23 -1 -18 9 4 22 0 29 -8 17 -21 -5 -85 -42 -120 -28 -27 -30 -27 -43 -9
-13 18 -14 18 -26 -5 -11 -21 -10 -26 11 -42 59 -46 69 -60 69 -99 0 -31 -6
-42 -33 -63 -44 -34 -77 -35 -77 -2 0 39 -20 48 -79 34 -43 -10 -53 -9 -68 4
-17 14 -84 41 -88 36 -2 -2 -10 -18 -19 -35 -18 -36 -55 -59 -103 -64 -30 -3
-47 4 -196 79 -16 8 -61 20 -100 27 -91 17 -219 42 -277 54 -25 6 -62 10 -83
11 -42 0 -124 -37 -111 -50 15 -15 126 -40 179 -40 61 0 156 -22 188 -43 13
-8 40 -19 60 -22 47 -9 72 -36 58 -63 -25 -48 -146 -65 -251 -37 -30 8 -82 15
-115 15 -33 0 -108 5 -167 12 -108 11 -108 11 -180 -18 -40 -15 -84 -36 -98
-45 -73 -48 -171 -100 -210 -113 -228 -71 -289 -88 -380 -106 -123 -24 -247
-27 -275 -6 -14 10 -20 28 -21 63 -1 26 -5 67 -9 90 -7 42 -7 42 41 73 71 45
117 65 269 120 75 27 199 77 276 110 187 82 353 140 399 140 20 0 63 9 96 19
32 11 93 29 134 41 41 12 80 25 85 29 6 4 30 13 55 20 25 7 79 26 121 42 84
33 90 33 224 -15 200 -71 359 -117 380 -112 13 3 43 21 67 39 24 18 61 43 83
56 55 33 105 81 193 186 41 49 85 98 98 107 55 44 117 48 122 10z m-2994 -208
c3 -9 6 -24 6 -35 0 -12 5 -16 15 -13 12 5 14 -12 9 -123 -5 -90 -2 -167 10
-258 9 -72 16 -137 16 -145 0 -12 -15 -15 -68 -14 -120 1 -122 4 -122 129 0
52 -9 158 -20 237 -12 79 -22 154 -23 167 -2 22 5 26 78 47 99 28 92 27 99 8z
m1776 -641 c33 -6 34 -6 10 -13 -14 -5 -50 -8 -80 -9 -30 0 -114 -8 -186 -18
-133 -17 -164 -15 -164 11 0 18 30 26 110 27 36 0 85 4 110 8 46 7 137 5 200
-6z"/>
<path d="M3690 5100 c0 -5 5 -10 10 -10 6 0 10 5 10 10 0 6 -4 10 -10 10 -5 0
-10 -4 -10 -10z"/>
<path d="M2547 4503 c-11 -10 34 -53 55 -53 23 0 23 22 0 43 -19 18 -44 22
-55 10z"/>
<path d="M2672 4393 c3 -14 13 -18 48 -18 35 0 45 4 48 18 3 14 -4 17 -48 17
-44 0 -51 -3 -48 -17z"/>
<path d="M2930 4329 c0 -5 5 -7 10 -4 6 3 10 8 10 11 0 2 -4 4 -10 4 -5 0 -10
-5 -10 -11z"/>
<path d="M2800 4265 c-30 -17 -76 -19 -119 -4 -50 18 -47 4 8 -37 35 -26 47
-40 38 -46 -6 -4 -10 -8 -7 -8 3 0 20 -4 38 -9 l32 -10 -21 27 c-18 24 -19 27
-4 30 23 5 47 -6 40 -18 -4 -7 7 -10 33 -9 39 3 40 4 26 23 -8 11 -14 33 -14
48 0 31 -13 34 -50 13z"/>
<path d="M2976 4201 c-4 -7 -5 -15 -2 -18 9 -9 19 4 14 18 -4 11 -6 11 -12 0z"/>
<path d="M2937 4150 c19 -22 29 -19 20 5 -4 8 -13 15 -22 15 -13 0 -12 -3 2
-20z"/>
<path d="M2870 4148 c0 -9 5 -20 10 -23 13 -8 13 5 0 25 -8 13 -10 13 -10 -2z"/>
<path d="M4014 1876 c-8 -21 3 -36 27 -36 15 0 20 6 17 22 -4 27 -35 37 -44
14z"/>
<path d="M5728 653 c7 -3 16 -2 19 1 4 3 -2 6 -13 5 -11 0 -14 -3 -6 -6z"/>
</g>
</svg>
